<svg id="World_Continents" data-name="World Continents" xmlns="http://www.w3.org/2000/svg" viewBox="0 0 1665.6 845.4">
  <title>continents</title>
  <path id="South_America" data-name="South America" d="M766.5,687.5a39.2,39.2,0,0,1-8-4c-4.8-3.2-5.5-5.2-9-6s-3.8.5-8,0a22.7,22.7,0,0,1-7-2,43,43,0,0,0-17-8c-3.9-.8-7.8-1-11-4a14.4,14.4,0,0,1-4-8c-3.2-10.1-9-13.9-11-15-3.9-2.2-8.7-3.1-14-4a63.7,63.7,0,0,0-8-1,51.1,51.1,0,0,0-8-10,48,48,0,0,0-11-8,142.6,142.6,0,0,1-23-3,146.6,146.6,0,0,1-26-8,29.5,29.5,0,0,0-24.8,20.4h0a27.9,27.9,0,0,0-1.2,5.5,31.1,31.1,0,0,0,1,12c.3,2.7-.3,4.1-1,5s-2.5,1.3-4,3-.8,2.2-2,4-4,2.4-6,5a16.7,16.7,0,0,0-3,6,7.4,7.4,0,0,0-1,4c.1,3,2.1,3.8,2,6s-3,3-4,6-.6,3.7,1,7a105.6,105.6,0,0,1,12,16c6.9,11.3,7.4,17,12,24s11.5,13.7,27,19c.3,5.9.3,12.2,0,19-.2,4.6-.6,8.9-1,13a115.8,115.8,0,0,0-4,18,113,113,0,0,0-1,21,46,46,0,0,1-4,17,38,38,0,0,1-4,7,90,90,0,0,1-1,13,84.1,84.1,0,0,1-2,10,28,28,0,0,1,2,9,27.5,27.5,0,0,1-1,9,42.6,42.6,0,0,0-7,26,48.5,48.5,0,0,0-1,13,51,51,0,0,0,3,14,52.8,52.8,0,0,0,7,10,50.7,50.7,0,0,0,9,8,30.5,30.5,0,0,0,5,2,26.9,26.9,0,0,0,10,1,22,22,0,0,0,5-1,20.8,20.8,0,0,0,7-4,21.1,21.1,0,0,1-17-19,12.4,12.4,0,0,1-1-5,13.6,13.6,0,0,1,1-5,76.9,76.9,0,0,0,7-7,78.9,78.9,0,0,0,8-11,10.6,10.6,0,0,1-6-4,10.2,10.2,0,0,1-2-5,9,9,0,0,1,2-5,9.1,9.1,0,0,1,7-3,17.7,17.7,0,0,0,2-9c-.2-3.4-1.6-5.4-1-9a14,14,0,0,1,2-5,18,18,0,0,0,12,0v-12a33.5,33.5,0,0,0,21-3,12,12,0,0,0,3-3,12.2,12.2,0,0,0,2-5,17.2,17.2,0,0,0-9-13,2.1,2.1,0,0,1,0-2,2,2,0,0,1,2-1,12,12,0,0,0,3,3,12.2,12.2,0,0,0,5,2h9a44.1,44.1,0,0,0,9-9c3.9-5.2,4.4-8.3,8-13a41.2,41.2,0,0,1,11-10v-16a37.6,37.6,0,0,1,16-11,36.1,36.1,0,0,1,14-2,47.8,47.8,0,0,0,7-9,49.4,49.4,0,0,0,6-15c2.7-6.8,2.7-11.2,2-14a33.6,33.6,0,0,1,1-11c2-6,14-10,17-21S766.5,687.5,766.5,687.5Z" transform="translate(-153.7 -114.7)" fill="#fff" stroke="#000" stroke-miterlimit="10"/>
  <path id="Africa" data-name="Africa" d="M1136,598.8l-1.5-1.3a41.6,41.6,0,0,0-3-4c-1.9-2.3-5.4-4.2-8-4a24.7,24.7,0,0,1-4-6,23.1,23.1,0,0,1-2-7,21.4,21.4,0,0,1-4-4,23.5,23.5,0,0,1-3-5,18.7,18.7,0,0,1-1-9l-5-7-3-7c-3-9-6-11-9-19a83.6,83.6,0,0,0-6-12h2l2,5c1.9,4.4,2.7,5.6,4,6a4.4,4.4,0,0,0,2,0,21.1,21.1,0,0,0,1-3c.2-.7.3-1.4.5-2.1l-.3-3.7a16.6,16.6,0,0,1-1.2-8.2,19.1,19.1,0,0,1-8,0,20.4,20.4,0,0,1-7-3c-.4,0-3.3-.1-5,2a4.2,4.2,0,0,0-1,2,33.5,33.5,0,0,1-9,0,34.1,34.1,0,0,1-10-3,67,67,0,0,1-8-3q-3.3-1.5-6-3a10.7,10.7,0,0,0-6-1,10.4,10.4,0,0,0-5,2,12.8,12.8,0,0,1-2,8,12.1,12.1,0,0,1-3,3,39.3,39.3,0,0,1-14-4,39.8,39.8,0,0,1-10-7,41.3,41.3,0,0,1-9-2,44,44,0,0,1-10-5,4.7,4.7,0,0,1,1-3c1-1.3,2.3-1.1,3-2s.8-2.4-1-6c0-5-2-9-9-6a106.9,106.9,0,0,0-15,0,100.5,100.5,0,0,0-18,3l-15,6a26.1,26.1,0,0,1-7,1,28.4,28.4,0,0,1-8-1l-1-1.5c-2,.9-3.1,1.5-4.7,1.1h-.3c-.3.7-.6,1.6-1,2.4s-1.3,2.8-2,4a33.2,33.2,0,0,0-9,6,31,31,0,0,0-5,6v10a46.1,46.1,0,0,1-8,8,45.3,45.3,0,0,1-10,6,25.8,25.8,0,0,0-5,7,21.6,21.6,0,0,0-2,7,18.5,18.5,0,0,0-7,9,18.6,18.6,0,0,0-1,6c1.3,5.7,2.7,11.3,4,17a21.6,21.6,0,0,1-2,9,22.1,22.1,0,0,1-4,6,27.3,27.3,0,0,1,2,5,24.9,24.9,0,0,1,1,7,33.7,33.7,0,0,1,11,10,34.8,34.8,0,0,1,5,11,78.2,78.2,0,0,0,11,9,79.9,79.9,0,0,0,15,8,28.1,28.1,0,0,1,14-4,28.7,28.7,0,0,1,11,2,21.8,21.8,0,0,0,10-3,23.1,23.1,0,0,0,4-3,74.9,74.9,0,0,1,9-1,71,71,0,0,1,8,0,12.2,12.2,0,0,1,4,5,12.8,12.8,0,0,1,1,4,12.4,12.4,0,0,0,6,1,13.3,13.3,0,0,0,6-2,12.8,12.8,0,0,1,4,1,11.7,11.7,0,0,1,4,3,54.8,54.8,0,0,1-4,23,49,49,0,0,0,15,17,49.1,49.1,0,0,0,2,8,48.1,48.1,0,0,0,4,9,4.9,4.9,0,0,0,0,8,18.7,18.7,0,0,1,1,9,75.4,75.4,0,0,0-5,8,73.9,73.9,0,0,0-4,9v12c4.3,6.8,6,9.4,8,13s3.9,7,5,10c4.5,12.4-.4,18.3,5,26,1,1.5,2.6,3.2,5,7a77.8,77.8,0,0,1,4,7c6,6-3,15,7,21,3,2,15-3,36-4,7-5,17-10,21-23,9-5,7-11,6-16s10-8,12-7c3-2,2-8,2-12,2-5-11-11-1-15s6-6,11-11a21.4,21.4,0,0,0,14-8v-26a11.4,11.4,0,0,1-4.7-1c-3.3-6-6.3-15-3.3-23a19.2,19.2,0,0,1,5-9c3.1-3.6,13.8-15.2,18-19s6.1-3.6,11-8a54.7,54.7,0,0,0,10-13c3.8-6.4,2.3-6.1,6-12s5.7-7.5,6-12a14.1,14.1,0,0,0-1-6,13.1,13.1,0,0,1-6,3,13.7,13.7,0,0,1-5,0,17,17,0,0,0-5,1c-2.3.8-3.1,1.5-5,2a12,12,0,0,1-5,0,6.5,6.5,0,0,1-5,1,6.9,6.9,0,0,1-5-5,7.4,7.4,0,0,0,0-4,3,3,0,0,0-.4-1l-1.2-1A1.5,1.5,0,0,1,1136,598.8Z" transform="translate(-153.7 -114.7)" fill="#fff" stroke="#000" stroke-miterlimit="10"/>
  <path id="Asia" data-name="Asia" d="M1810.1,280c-1.2.1-1.7.5-5.7,1.9l-4.5,1.5a33.6,33.6,0,0,1-6-3.9,32.5,32.5,0,0,1-7.9-9.7,62.2,62.2,0,0,0-39.5-9.3,67,67,0,0,1-21.7,5.1,64.3,64.3,0,0,1-24.3-3.1c-5.3,1-12.8,1.5-17.6-2.8-2.9-2.6-3-5.4-4.7-7.9-3.1-4.1-11.3-7.3-34.6-1.6a53.5,53.5,0,0,1-13.5-4.5c-5.5-2.8-7.6-5.1-13-7.4a41.2,41.2,0,0,0-11.8-2.8l-12.9,1.7c-2.6,3.3-7.1,7.7-13.5,9.3s-9.9-1.8-18.9-.6-14.2,7.1-18.2,4.8c-1.8-1-3.7-3.5-3.7-10.4l-2.6-9.8-20-5-15,7c-15.2-6.5-27.5-7.3-36.4-6.5-15.1,1.3-29.2,7.7-30.3,5.3s1.6-3.1,3.7-4.8l27-16a13.8,13.8,0,0,0-8.3-17.2h-18.8c-19.1-17.1-25.7-1.1-34.3,2.3a93.3,93.3,0,0,1-22.8,5.6l-35.8,8.3-4,14a66.7,66.7,0,0,1-15.3,2.8,69.5,69.5,0,0,1-13.7-.8c-.7,4.7-1.3,9.3-2,14l-8,7a19.3,19.3,0,0,1-9.8-1.1,18.4,18.4,0,0,1-4.5-2.6l-4.6-1.8c-.6,4.9-1.3,8.9-1.8,11.7-1.1,5.2-2,8.1-.3,10.4a6.3,6.3,0,0,0,4,2.4v9l-5.4,6-11.6,5.9c-8.1-2.2-9.9-3.7-9.8-4.7.2-2.7,12.9-1.9,16-8.5,1.3-2.6.6-5.6-.2-7.7a49.1,49.1,0,0,1-2.6-19.3,52.2,52.2,0,0,1,2.6-12.7l-14-1-13,23,11,11-5.6,2.1a3.4,3.4,0,0,1,2.3,1.5,3.7,3.7,0,0,1-.7,4.4,19.5,19.5,0,0,1-2.6,4.3c-2.5,3.4-4.6,4.4-7,6.8s-2.2,4.4-5.3,8.4c-5,6.5-9.3,6-14.1,12.3a24.2,24.2,0,0,0-3.9,7.4,157.7,157.7,0,0,0-1.3,16.5c-.4,12.2.6,17.2.3,25.6a89.9,89.9,0,0,1-5.1,25.7c-.6,3.9.4,5.7,1.1,6.9a8.8,8.8,0,0,0,4.2,3.4c.9.4,2.3,2.5,1.8,3.8a8.1,8.1,0,0,1-2,2.8c-2.3,1.7-5.4,1-6.8.7s-3.3-1.9-5.9-2.7a13.9,13.9,0,0,0-7.7,0,5.4,5.4,0,0,0-3.1,1.7c-2.4,3,1.4,7.9-1,11s-3.1.9-4.3,2.9-.3,3-.6,5.9a17.7,17.7,0,0,1-1.7,5.6,30.7,30.7,0,0,1-8.2.5c-3.4-.3-4.3-1.1-7-.9s-3.8,1.1-7.6,3-6.5,3.2-8.3,5.2a15.9,15.9,0,0,0-3.1,4.9l-2.3-.4-.5.7-3.8-2a34.2,34.2,0,0,1-3.3-1.6c-2.6-1.8-4.2-3.8-7.1-5.8a18,18,0,0,0-3.5-2.1l-.4-.2-.7-.3a26,26,0,0,0-4.9-1.7l-4.5-.9-3.1-.3H1119l-7.3,7.5a37.2,37.2,0,0,0,7.3,13.8c5.9,6.9,12.2,8.7,11.8,11.5s-2.9,3.9-14.9,5.4c-2.8-.9-7.4-2.2-12.9-4.2-7.6-2.8-8.5-3.6-11.2-3.4-5.7.3-5.8,3.9-14.4,6.2-3.7,1-5.2.7-8.7,2.2a25.6,25.6,0,0,0-7,4.5,13.3,13.3,0,0,0-1.4,9.3,14,14,0,0,0,5.2,8.2c8.3,3.4,14.3,3.1,18.4,2.2,7.3-1.6,11.6-6.1,15.2-4.2s3.2,5.6,3.3,8.7a13.8,13.8,0,0,1-.2,8.5c-1.3,3.2-3.4,3.9-4.8,6.7a8.1,8.1,0,0,0-.9,3.1h0c.7,2.3,1.3,4.7,2,7a31.3,31.3,0,0,1-.5,4.9l.5,6.1a60.6,60.6,0,0,1,11.3,15.2c5.4,10.5,3.7,15.4,9.8,23.9,4.7,6.5,7.4,6.1,11.2,11.8,5.1,7.5,5.6,16.1,5.2,22.4a5.6,5.6,0,0,1,1.1,1.7,11.1,11.1,0,0,0,5,2.3c5.3,1.1,11.1-1.7,14.9-7a90.3,90.3,0,0,0,19.7-6.5,98.4,98.4,0,0,0,37.8-30.8c-1.1-5-3.1-7.3-4.9-8.5-3.6-2.5-6.9-1.1-10.1-3.7s-4.5-5-5.6-3.3a11.2,11.2,0,0,1-5.1,5.3c-7.3,3.2-17.2-4.8-22-11a31.2,31.2,0,0,1-6.1-16.9c2.6-5.5,4.8-6.6,6.4-6.7,6.1-.3,6.9,15.3,17.5,19.1,7.2,2.6,11.5-2.9,19.9.9,4.6,2,4.7,4.2,9,6.7s10.9,4.3,22,1.7c11.7.4,16.4,3.8,18.5,7s2.7,6.6,7.1,11.6c1.7,1.9,3.1,3.1,4.8,3s4.9-3,5.4-3.6,1.6.9,1.9,3.1,1.2,8.6,3.1,16.3c2.5,10.4,5.3,19.1,7.3,22.8,2.7,5.2,3.4,4.9,5.6,9.8,3.6,8.3,3.5,13.3,6.1,14s3.6-.4,7.7-6.4a17.3,17.3,0,0,0,4.5-7.3c1.8-6.4-1.6-10.6.5-16.6a15.5,15.5,0,0,1,4.5-6.3,202.7,202.7,0,0,0,21-19.1c6-6.3,9.6-11,16.2-12.3s10.5.9,13.7,2.5a24.1,24.1,0,0,1,10.4,11.9,24.4,24.4,0,0,1,1.2,13.8,6.1,6.1,0,0,0,3.1,3.3c4.2,1.8,7.7-4.6,12.6-3.9s5.4,11.7,15.2,16.6c3.6,1.8,4.7.8,7.9,3.1,4.9,3.5,4.8,7.6,8.7,9.8,2.1,1.2,5.6,2,11.5-.3a13.6,13.6,0,0,0,8.5-5.6,13,13,0,0,0,2.2-7.9,21,21,0,0,0-3.1-10.6c-3.7-6-8.9-6.7-11.2-12.1-.9-2.2-1.7-5.7.1-11.2a15.3,15.3,0,0,1,5.8-5.4c3.1-1.7,5.9-1.7,9-2,1-.1,5.5-1.2,14.3-3.4,5.5-1.3,12.2-3.1,19.9-5.2a93.7,93.7,0,0,0,23-34c.6-8-1.2-13.4-2.9-16.7-3.7-7.2-8.7-9.1-11.3-16.4a24.6,24.6,0,0,1-.8-12.9c6-9.9,10.8-11.9,14-11.8,5.5.1,6.9,6.1,14.4,7.6s13.6-2.6,16.3-4.2c6.3-3.9,5.6-6.6,11.8-11.3s11.3-4,18.8-8.1c4.5-2.5,10.5-7,15.8-16.4a106.2,106.2,0,0,0,9.7-18.9,119.4,119.4,0,0,0,5.5-18.7c-.1-6.4-1.8-9.1-3.7-10.2s-6.7,1.6-13.2.6-11.5-4.7-11.2-8.2c0-.6.3-2.6,4.3-4.6a34.1,34.1,0,0,0,10.8-7.7,64.9,64.9,0,0,0,4.5-5.6,38.5,38.5,0,0,1,13.2-10.5,61.5,61.5,0,0,1,17.8-2.2c7,.1,10,1.4,16.3,1.4a49.6,49.6,0,0,0,18.9-4.2l9.2-6.8c9.2-6.9,10.9-8.6,15.2-9.8a26.9,26.9,0,0,1,11.3-.6,27.4,27.4,0,0,1,7.3,2.3,5.6,5.6,0,0,1,3.1,3.6c.6,3.8-5.3,7.6-9.9,10.7a196.8,196.8,0,0,0-21.6,17.4c-6.9,9.1-7.4,15.2-6.5,19.2s1.9,3.7,3.4,9.3c1.9,7.2,1.3,12,2.8,12.3s1.7-.5,3.7-4.6a35.4,35.4,0,0,1,8.1-13.9c3.4-3.7,5.7-4.4,8.2-7.6s4.8-8.3,4.5-17.2a28.1,28.1,0,0,1,13.7-17.4,28.4,28.4,0,0,1,23.9-1.1,36.7,36.7,0,0,0,6.8-2.6c6.3-3.1,7.7-6.2,13.8-9.3,4.3-2.2,4.9-1.2,8.7-3.1,5.7-2.7,9.4-7.3,11.8-11.2l4.5-9.6c3.7-10.2,6.5-12.4,8.4-12.3s3.6,6.3,10.2,11.5c4.2,3.3,10.7,6.1,13.5,3.9s-.4-5.7,2.2-9.5,10.4-3.2,11-5.9S1814.2,279.5,1810.1,280Z" transform="translate(-153.7 -114.7)" fill="#fff" stroke="#000" stroke-miterlimit="10"/>
  <path id="Europe" data-name="Europe" d="M912.5,482.5l1,1.5,2.3-1a29.8,29.8,0,0,1,7.7-1.5c2.7-.8,6.3-2.3,8.6-5.6s.5-7.9,3.8-12.3c1.5-1.9,4.8-3.8,11.3-7.6l3.2-1.8a6.7,6.7,0,0,0,.4-3.9c-.2-1.6-.8-2.1-.8-3.1s.7-2.4,3.4-4c5.3,3.5,8.7,3.5,10.8,2.7s3.6-3.6,7.2-5.1a13.4,13.4,0,0,1,8.1-.3,6.6,6.6,0,0,1,3,.3c3.8,1.7,2.6,7.1,6.7,11.6,1,1,1.3,1,6.9,4.3s7.3,4.5,9.4,5.8a6.4,6.4,0,0,1,4.1,5.1c.3,2.6-1.6,4.4-2.2,5-4,4-10.8,2-11.3,1.9s-2.4,0-2.6.7,2.1,3.4,3.8,4.5a16.4,16.4,0,0,0,8.4,2.6,20.7,20.7,0,0,0,8-8.1,21.4,21.4,0,0,0,2.5-12,76.2,76.2,0,0,1-23.4-24.6,4.9,4.9,0,0,1,.2-4.3,5.2,5.2,0,0,1,5.8-2,66.9,66.9,0,0,0,13.9,13.8,68.7,68.7,0,0,0,10.8,6.4,6.9,6.9,0,0,1,3.1,4.4c.3,1.5-.3,2.4-.1,4.4a9.4,9.4,0,0,0,1.3,4c2,2.6,3.5,4.7,4.5,6.2,3.1,4.6,4.2,6.5,4.2,6.5,2.3,3.9,2.9,5.3,4.1,5.3s2.4-2,2.8-3a6.9,6.9,0,0,0,.2-3.7,10.5,10.5,0,0,1-2.5-6.5,12.4,12.4,0,0,1,1-4.8c3.1-3.4,5.9-4.5,7.9-4.9s5.4.8,10,.4a20.7,20.7,0,0,0,7.1-1.8,5.8,5.8,0,0,0,0-3.9c-.6-1.8-1.8-2-2.3-3.3s1.1-4.9,3.2-8.4a66.2,66.2,0,0,0,5.2-10.4,8.9,8.9,0,0,1,15.2-2.8l3.2,5.6c.4,1.9,1.5,3.5,3,3.8s4-2.2,4.7-3.9-.2-4.3.6-6.8,2.1-3.7,6.6-5.4a42,42,0,0,1,12.5-1h1.2l3.1.3a32.4,32.4,0,0,1,4.5.9,23.8,23.8,0,0,1,4.9,1.7l.5.2h.2l.4.2a31.7,31.7,0,0,1,10.6,7.9,34.2,34.2,0,0,0,3.3,1.6h0a17.2,17.2,0,0,0,4.3,1.3l2.3.4a15.9,15.9,0,0,1,3.1-4.9c1.8-2,4-3.1,8.3-5.2s5.7-2.8,7.6-3,3.6.6,7,.9a30.7,30.7,0,0,0,8.2-.5,17.7,17.7,0,0,0,1.7-5.6c.3-2.9-.4-4.2.6-5.9s3-1.2,4.3-2.9-1.4-8,1-11a5.4,5.4,0,0,1,3.1-1.7,13.9,13.9,0,0,1,7.7,0c2.6.8,3,2,5.9,2.7s4.5,1,6.8-.7a8.1,8.1,0,0,0,2-2.8c.5-1.3-.9-3.4-1.8-3.8a8.8,8.8,0,0,1-4.2-3.4c-.7-1.2-1.7-3-1.1-6.9a89.9,89.9,0,0,0,5.1-25.7c.3-8.4-.7-13.4-.3-25.6a157.7,157.7,0,0,1,1.3-16.5,24.2,24.2,0,0,1,3.9-7.4c4.8-6.3,9.1-5.8,14.1-12.3,3.1-4,2-5.2,5.3-8.4s4.5-3.4,7-6.8a19.5,19.5,0,0,0,2.6-4.3,3.7,3.7,0,0,0,.7-4.4,3.4,3.4,0,0,0-2.3-1.5h-.4a18.9,18.9,0,0,0-6.5-4.4c-1.2-.5-4.5-1.8-18-1.6l-4.9.2a37.8,37.8,0,0,1-5.7,3.7,21.7,21.7,0,0,1-5.5,2.3c-4.8,1.2-6.9-.9-12.4-1.1-3.6-.1-4.7.8-9.7,1.8a70.7,70.7,0,0,1-17,1.3,21.7,21.7,0,0,0-6.9,2.5,57,57,0,0,0-5.6,4.2l-6.2,4.7-6.6-.4a12.6,12.6,0,0,0-2.8,1.8c-2.3,2-2.2,3.4-3.6,4.3s-4.3-.9-9.1-.5c-1.1.1-6.2.4-8,3.9a6.6,6.6,0,0,0-.4,4.9c.8,1.3,1.5,3.1.8,4.3s-3.8.7-7.5,2.4-3.7,4.5-6.9,5.3-8-1.8-10.2-5a12.1,12.1,0,0,1-2-5.3c.9-6.6-.6-9.3-2.1-10.5s-2.5-1-5.3-3-3.7-2.6-3.4-3.8,1.9-1.2,2.9-1.4a12.4,12.4,0,0,0,4.4,4c2.3,1.1,3.9.8,6.2.9,6.3.6,7.4,4.1,12.9,5a17.7,17.7,0,0,0,9.8-1.6,8.7,8.7,0,0,0,2.3-14.7c-7.9-6.5-14.8-8.4-19.7-8.9s-9.2.5-15.7-1.1a35.9,35.9,0,0,1-12.7-5.9,32.3,32.3,0,0,0-14-5.5,33.7,33.7,0,0,0-21.1,3.9l-11.9,5.5c-12,5.7-18,8.5-21.5,11.7s-2.5,4.9-12.9,19.9c-6.9,9.8-10.3,13-13.1,15.2a49.2,49.2,0,0,1-12.8,7.2,15.5,15.5,0,0,0-9.2,6.8,15.9,15.9,0,0,0-1.5,12.8,18.2,18.2,0,0,1,2.3,6.8c.2,2.1-.1,3,.5,4.4s1.9,3.4,5.8,4.9c6.9,1.1,9.9-.4,11.3-2s2.6-2.3,3.9-4.5,3.3-1.4,4.4-.3a12.1,12.1,0,0,1,2.4,4.5c1.1,3.3,1.5,5.4,2,7.2a31.3,31.3,0,0,0,3.5,8.2,11.4,11.4,0,0,0,7.3,3.2,12.3,12.3,0,0,0,9.5-4.4,22,22,0,0,0,1.9-5.1c1.2-5.3-.2-8.2,1.7-10.6s2.3-2.1,5.6-2.2c3-2.3,3.9-4.1,3.7-5.6-.3-3.5-5.9-4.2-7.9-8.7s-.3-6.8,1.1-9.8,4.5-6,6.4-7,4.7-1.2,7.1-3.4a12.7,12.7,0,0,0,3.9-6.8c.5-3.2-.8-4.6.3-6.9a7.6,7.6,0,0,1,3.7-3.3,12.8,12.8,0,0,1,6.5-1.7,13.7,13.7,0,0,1,6.7,2.1,10.1,10.1,0,0,1,.6,6.4c-.9,2.8-3,4.3-6.8,7.2-2.3,1.8-5.7,4.5-9.6,8a35.2,35.2,0,0,0-.7,7.8,36.7,36.7,0,0,0,1.4,9.9,12.1,12.1,0,0,0,5.6,4.4c2,.6,3.7.5,6.5,0a90,90,0,0,0,12.4-3.4c2.4-1.9,5.4-2.2,7.2-.8a4.4,4.4,0,0,1,1.6,2.3c2.6.8,5.5,1.9,5.4,3s-10.6,3.2-12.7,3.5c-10.4,1.1-16.8-.2-17.6,1.9s3,2.8,4.1,7.5c.7,3,.3,6.9-1.4,7.6s-1.2.2-2.5-.5c-2.3-3.3-6.1-4.6-8.6-3.4s-3.2,3.9-3.4,5.7.3,2.1.6,4.9a33.4,33.4,0,0,1,.1,4.3,45.7,45.7,0,0,1-9.4,3.7c-5.7,1.6-10.1,1.5-14.3,1.6s-12.6.3-22.1,1.3a61,61,0,0,1-12.2,2.5c-4.9.4-8.6.2-13,2.5a20.9,20.9,0,0,0-4.2,3c-1.5,5.5-4,7.9-6,9.1s-5.5,1.4-8.1,4.1a12,12,0,0,0-2.4,4.1,31.9,31.9,0,0,1-11.2,8.7,32.5,32.5,0,0,1-14.6,2.8c-1.4,1-2.8,2.3-2.6,3.4s2.9,1.5,4.5,1.9,6.8,2.9,10.7,8.9a21.2,21.2,0,0,1-.8,16.3h-33a69.1,69.1,0,0,1-.1,12c-.4,4.8-1,6.7-1.3,10.6a45.4,45.4,0,0,0,1.1,14.3c4.3-1.1,6.9-.3,8.5.7s2.8,3.3,4.8,4c.4-.9.7-1.8,1-2.6Z" transform="translate(-153.7 -114.7)" fill="#fff" stroke="#000" stroke-miterlimit="10"/>
  <path id="Australia" data-name="Australia" d="M1643.5,780.5c-2.9-3.4-5.5-4-9.2-7.5a33.5,33.5,0,0,1-8.5-13.1,16.7,16.7,0,0,0-3-3.2c-2.4-1.9-4.3-2.3-5.5-3s-4.1-4.3-3.8-13.2a15.2,15.2,0,0,0-3.7-8c-1.8-1.9-2.8-1.7-4.5-3.1-5.5-4.8-3.3-14.3-5.7-14.7-.6-.2-1.7.4-3.4,3.5a21,21,0,0,0-2.1,6.8,21.5,21.5,0,0,0,.5,8.9,13.7,13.7,0,0,1-1.7,7.6,14.1,14.1,0,0,1-4.4,5,23.7,23.7,0,0,1-6.1-1.8c-2.3-1.2-2.5-1.9-5.5-3.7s-3.5-1.4-5.5-2.7a19.4,19.4,0,0,1-4.9-4.8,22.1,22.1,0,0,1,.8-6.1,17.4,17.4,0,0,1,4.2-6.9l-20.2-1.2a17.9,17.9,0,0,0-9.3,6.5,17.3,17.3,0,0,0-2.7,5.8c-2.3,2.6-3.8,3.1-4.9,2.9s-2.6-3.8-5.3-4.7a6.2,6.2,0,0,0-5.3,1.2l-11.9,11.1c-1.8,1.7-3.8,3.6-5.7,5.7a94.3,94.3,0,0,0-8.2,10.3,48.7,48.7,0,0,1-15.2,3.8,30.2,30.2,0,0,0-6.2.7c-5,1.4-8.4,5.2-10.5,8.2a59.4,59.4,0,0,0-.1,25.3,58.6,58.6,0,0,0,8.5,20.4,12.4,12.4,0,0,1,.6,5.7,11.4,11.4,0,0,1-2.3,5.7,7.5,7.5,0,0,0,1.6,5,7.1,7.1,0,0,0,5.1,2.6,19.2,19.2,0,0,0,7.3-1.9c3.9-1.9,3.6-3.6,6.6-4.6s6,1,12.8.4a21.7,21.7,0,0,0,5-1,25.2,25.2,0,0,1,4-4.4,22.6,22.6,0,0,1,9.3-4.5l19.7-2c8.9-1.2,13.4,1,15.8,3.2s3.3,5.6,6.2,6.7,8.5-1.3,11.8-3.9a81.9,81.9,0,0,1,5.8,14.6c1.7,6.1,2,10,5.3,12.5s6,2.1,8.4,1.9l31-2a8.3,8.3,0,0,0,4-3,9,9,0,0,0,1-8,43.5,43.5,0,0,1,5-10c3.9-5.8,6.2-6.2,8-11,1.2-3.1,1.6-5.5,2-10a69.6,69.6,0,0,0-.2-14.3C1648.1,790.3,1647.2,784.9,1643.5,780.5Z" transform="translate(-153.7 -114.7)" fill="#fff" stroke="#000" stroke-miterlimit="10"/>
  <path id="North_America" data-name="North America" d="M576.5,624.5l-5-6h-6l-5,2a10.3,10.3,0,0,1-7-1,10.4,10.4,0,0,1-5-7,16.1,16.1,0,0,1-2-9c.4-4.4,2.8-6.6,2-10a8.9,8.9,0,0,0-4-5h-18a21.6,21.6,0,0,1,2-18c1.3-2,2.4-2.8,3-5a10.4,10.4,0,0,0,0-5c-9-.7-13.5,1.7-16,4s-3.3,7.2-7,10-10.5,2.3-15,1a38.1,38.1,0,0,1-7-7,32.8,32.8,0,0,1-5-9c-3.1-8.6-1.1-16.4,0-21a47.1,47.1,0,0,1,6-14,82.7,82.7,0,0,1,27-9,86,86,0,0,1,25,0,33.9,33.9,0,0,1,9,7,35.9,35.9,0,0,1,9,21,7.6,7.6,0,0,0,4-1,7.4,7.4,0,0,0,3-3c-2.2-7.2-3.9-12.5-5-16a32.7,32.7,0,0,1-2-10c-.1-2.9-.1-5.8,1.3-8.2,2.5-4.3,8.4-2.8,12.7-5.8,8.2-5.6,11.1-13.8,17-26a282.4,282.4,0,0,1,15-27c9.2-8.9,16.7-10.9,22-11,3.3-.1,14.6.4,20.1-2.5.8-.4,3.3-1.7,3-2.7s-.4-.7-1.1-.9a19.9,19.9,0,0,1-9-5.9,17.6,17.6,0,0,1-3-5c2.3-4.8,1.9-7,1-8s-3.4-.9-8-2a34.6,34.6,0,0,1-6-2,11.6,11.6,0,0,1,4-4c3.3-1.9,6.6-1.3,11-1a106.7,106.7,0,0,0,14,0,16.6,16.6,0,0,0,7-2c3.5-1.9,3.8-3.9,7-5s4.7.2,7-1,3.3-3.1,4-7a18.8,18.8,0,0,0-6-12,19.4,19.4,0,0,0-13-5,62,62,0,0,1-8-11c-5.7-10.1-7.3-19.8-12.9-21.8-.7-.2-3-1.2-3.5,0-1.8,4.2-2.1,4.8-2.6,5.8-1.5,2.9-2.2,4.4-3,5-3.5,2.7-10.5-1.1-12-2l-6-14c-7.2-8.6-13.4-10.5-17-11s-4.3.2-11.7-.4c-3.6-.3-8.3-.9-8.4-.1v.3a22.9,22.9,0,0,1,3.1,11.2c-.1,8.1-5.8,10.4-4,15,.9,2.3,2.5,2.2,5,6a23.8,23.8,0,0,1,3,7c.2,2.4.1,5.7-2,8s-8.8,2.2-10,5c-.5,1.1-.3,3.2,3,7a18.3,18.3,0,0,1-7,16,42.6,42.6,0,0,1-14-25c-7.2-2.1-14.5-4.5-22-7l-17-6c-1.4-.4-9.2-2.5-13-10a19.9,19.9,0,0,1-2-9c2.6-15.2,8.2-21.3,13-24s9.5-2.4,15-7a27.6,27.6,0,0,0,8-12,20.5,20.5,0,0,0,2-12,19.9,19.9,0,0,0-3-8,32.9,32.9,0,0,0-8.7-10.3c-2.8-2.1-8.1-6.2-14.3-5.7s-7.9,4.4-13,8-12.7,6.8-26,6a113.2,113.2,0,0,1-12-2c-8.3-1.8-7.8-2.4-12-3s-12.7-1.7-21.9,2.5c-2.5,1.1-5.2,2.7-9.1,2.5a16.4,16.4,0,0,1-6.2-1.8,136.2,136.2,0,0,0-14.8-6.2,113.4,113.4,0,0,0-23-5,356.3,356.3,0,0,1-50,3,351.4,351.4,0,0,1-41-3c-9.7-.9-20.1-2.1-31-4a386.3,386.3,0,0,1-40-9,35.1,35.1,0,0,0-14,3,33.6,33.6,0,0,0-8,5c-3.7,4.5-7.3,6.3-10,7s-6.6.4-8.8,2.8-3.4,4.4-1.6,5.3a79.9,79.9,0,0,1,10.4,5.9,88.2,88.2,0,0,1,9,7,2.9,2.9,0,0,1,1,3,3,3,0,0,1-2,2c-2.9,1.2-6,.9-8-1a7,7,0,0,1-2-4,25.1,25.1,0,0,0-10,2,23.1,23.1,0,0,0-9,7,21.6,21.6,0,0,1,5,4,18.5,18.5,0,0,1,4,7,35.1,35.1,0,0,0,22-3,9.7,9.7,0,0,1,2,3,9.9,9.9,0,0,1,0,7,28.3,28.3,0,0,1-9,3c-4.6.7-6.5-.2-9,1s-4.8,3.6-6,11a35.7,35.7,0,0,0,18,19,46.5,46.5,0,0,0,9,2,47.8,47.8,0,0,0,12,0l1,3a9.9,9.9,0,0,1-2,4,11.6,11.6,0,0,1-4,3c-3.5,2-4,3-7,5-6.6,4.4-19.1,9.3-20.8,11.1-.2.2-1,.9-.7,1.2l.2.2,3.3.5a26,26,0,0,0,10-1,87.1,87.1,0,0,0,14-8,89.2,89.2,0,0,0,15-13c1.6-2.8,8.4-14.3,23-19a41,41,0,0,1,25,0,70.7,70.7,0,0,1,31,10,72.8,72.8,0,0,1,22,21,120.6,120.6,0,0,1,23,20,122.2,122.2,0,0,1,21,33,36.2,36.2,0,0,1,3,10,35.4,35.4,0,0,1-1,14,55.6,55.6,0,0,0,2,27,57.9,57.9,0,0,0,10,18,18.1,18.1,0,0,0,6,7,18.4,18.4,0,0,0,7,3,89.6,89.6,0,0,1,8,10,80.7,80.7,0,0,1,10,20c3.2,4.3,6,7.7,8,10s3.9,4.4,6,7a83.5,83.5,0,0,1,7,10h4v-4a164.6,164.6,0,0,0-25-33,8.3,8.3,0,0,1-1-5,8,8,0,0,1,1-3,12.4,12.4,0,0,1,5,1,11.1,11.1,0,0,1,3,2,51.2,51.2,0,0,0,6,12,50.5,50.5,0,0,0,10,11,62.2,62.2,0,0,0,8,11,64.7,64.7,0,0,0,10,9,28.4,28.4,0,0,1,2,7,26.4,26.4,0,0,1,0,8,109.6,109.6,0,0,0,20,12,112.4,112.4,0,0,0,20,7l12-1a38.9,38.9,0,0,1,5,3,44.4,44.4,0,0,1,8,7l17,4a81.4,81.4,0,0,0,13,16,85.9,85.9,0,0,0,16,12h6v-5l6-1,5,6a3.6,3.6,0,0,0,3-2l.2-.5h0A3.8,3.8,0,0,0,576.5,624.5Z" transform="translate(-153.7 -114.7)" fill="#fff" stroke="#000" stroke-miterlimit="10"/>
  <path id="North_America-2" data-name="North America" d="M869,133.3c-1.9,3.7-25.5,12.7-31.1,7.5s10.5-10.2,3.7-14.3-24.3-11.6-54-11.2-58.5,3-76.5,7.1,18.8,2.2,18.8,2.2,9.7,1.2-3.4,8.3c-9.4-2.3-35.6-10.1-39-3.8,0,0-25.9,2.3-29.6,1.5s-13.1,13.5-8.6,13.9-15.4,1.5-18.8,7.5-5.6,3,1.9,13.9-10.1,3.7-10.1,3.7-25.2,8.3-20.7,8.3,27.8,5.6,8.2,13.6c-3.1,1.2,12.1,7.9,12.5,8.1s26.2-5.2,34.1,0,12,17.3,17.2,20.3,4.9,27.6,4.9,27.6a22.8,22.8,0,0,1,22.1,5.8,18.9,18.9,0,0,1-2.6,12c-3.8,5.8-8.8,4.6-11.6,9-6.6,10.1,9.2,33.4,9.4,33.7l15.3,22.9s13.5-.8,15.8,6,9.4,3,9.7-4.1,3.8-21.8,8.7-22.5,1.1-13.2,2.6-14.3,26.2-6.4,26.2-11.6,21-19.8,21-15.5,31.2-4.8,34.5-10-11.2-6.3-9.3-11.4,5.8-1,9.8-7-5.5-16.9,0-15.7,18.3-4.2,16.8-11.7-18-18-9.4-18.7,14.9-16.5,9.5-19.1.3-11.3,4-10.9,27.8-22.5,33-23.6S870.9,129.5,869,133.3Z" transform="translate(-153.7 -114.7)" fill="#fff" stroke="#000" stroke-miterlimit="10"/>
  <path id="North_America-3" data-name="North America" d="M412.8,247.5c27.6,19.6,23.1-7.2,42.8-2.7s24.2-12.4,30.3-17,36-6,30.4,8.6,23.6,12.4,32.6,14.5,22,13.6,18.1,15.3,11.8,8.4,21.3,10.7,9,12.9,2.8,18.5,34.9,37.7,38.3,22.5-7.9-5.6-10.7-24.7,10.7,2.8,23.1,2.8,5-23.1-7.9-23.6-13.5-20.8-32.8-24.9-19-19.7-19-19.7-25.8,1.3-16.4-13.9-21.3-22-5.5-23.6,40.9-23.7,40.9-23.7l15.4-14.5,16.8-15.9s24.6-5.6,4-12.3c-37.7-10.7-86.7,2.8-113.7,7.3s-37.7,21.4-37.7,21.4l-33.7,18c-.9,11.8-9.4,16.1-14.7,17.5h3.4c-21.3,12.4-18.5,33.2-47.2,30.4S385.3,227.9,412.8,247.5Z" transform="translate(-153.7 -114.7)" fill="#fff" stroke="#000" stroke-miterlimit="10"/>
</svg>
